<?xml version="1.0" encoding="UTF-8" standalone="no"?>
<!-- Created with Inkscape (http://www.inkscape.org/) -->

<svg
   xmlns:dc="http://purl.org/dc/elements/1.1/"
   xmlns:cc="http://creativecommons.org/ns#"
   xmlns:rdf="http://www.w3.org/1999/02/22-rdf-syntax-ns#"
   xmlns:svg="http://www.w3.org/2000/svg"
   xmlns="http://www.w3.org/2000/svg"
   xmlns:sodipodi="http://sodipodi.sourceforge.net/DTD/sodipodi-0.dtd"
   xmlns:inkscape="http://www.inkscape.org/namespaces/inkscape"
   id="svg2"
   version="1.1"
   inkscape:version="0.91 r13725"
   width="720"
   height="540"
   viewBox="0 0 720 540"
   sodipodi:docname="draw_chromossomes.svg">
  <metadata
     id="metadata8">
    <rdf:RDF>
      <cc:Work
         rdf:about="">
        <dc:format>image/svg+xml</dc:format>
        <dc:type
           rdf:resource="http://purl.org/dc/dcmitype/StillImage" />
        <dc:title></dc:title>
      </cc:Work>
    </rdf:RDF>
  </metadata>
  <defs
     id="defs6">
    <inkscape:perspective
       sodipodi:type="inkscape:persp3d"
       inkscape:vp_x="0 : 270 : 1"
       inkscape:vp_y="0 : 1000 : 0"
       inkscape:vp_z="720 : 270 : 1"
       inkscape:persp3d-origin="360 : 180 : 1"
       id="perspective4201" />
  </defs>
  <sodipodi:namedview
     pagecolor="#ffffff"
     bordercolor="#666666"
     borderopacity="1"
     objecttolerance="10"
     gridtolerance="10"
     guidetolerance="10"
     inkscape:pageopacity="0"
     inkscape:pageshadow="2"
     inkscape:window-width="1366"
     inkscape:window-height="692"
     id="namedview4"
     showgrid="false"
     inkscape:zoom="4.9445096"
     inkscape:cx="270.87284"
     inkscape:cy="336.9818"
     inkscape:window-x="0"
     inkscape:window-y="24"
     inkscape:window-maximized="1"
     inkscape:current-layer="svg2" />
  <rect
     id="rect3338"
     width="20"
     height="100.01059"
     x="160.90042"
     y="199.73402"
     style="fill:#007b00;fill-opacity:1;stroke:#000000;stroke-opacity:1" />
  <ellipse
     id="path3340"
     cx="170.90042"
     cy="200.49681"
     rx="10"
     ry="10.00106"
     style="fill:#007b00;fill-opacity:1" />
  <ellipse
     id="path3340-2"
     cx="170.90042"
     cy="300.49469"
     rx="10"
     ry="10.00106"
     style="fill:#007b00;fill-opacity:1" />
  <path
     sodipodi:type="star"
     style="fill:#007b00;fill-opacity:1"
     id="path4199"
     sodipodi:sides="5"
     sodipodi:cx="80.942795"
     sodipodi:cy="219.66103"
     sodipodi:r1="10.94739"
     sodipodi:r2="8.8566246"
     sodipodi:arg1="0.99003997"
     sodipodi:arg2="1.6183585"
     inkscape:flatsided="true"
     inkscape:rounded="0"
     inkscape:randomized="0"
     d="m 86.949151,228.81357 -12.854875,-0.61187 -3.390454,-12.41479 10.759458,-7.06089 10.040166,8.05091 z"
     inkscape:transform-center-x="-0.16083884"
     inkscape:transform-center-y="-0.89123369" />
  <path
     sodipodi:type="star"
     style="fill:#007b00;fill-opacity:1;stroke:#000000;stroke-opacity:1"
     id="path4274"
     sodipodi:sides="3"
     sodipodi:cx="170.75212"
     sodipodi:cy="237.10805"
     sodipodi:r1="16.390543"
     sodipodi:r2="8.1952715"
     sodipodi:arg1="0.51048832"
     sodipodi:arg2="1.5576859"
     inkscape:flatsided="true"
     inkscape:rounded="0"
     inkscape:randomized="0"
     d="m 185.05297,245.11652 -28.38682,0.37219 13.87109,-24.7698 z"
     inkscape:transform-center-x="-0.10744065"
     inkscape:transform-center-y="-4.0042373" />
  <ellipse
     id="path3340-6"
     cx="239.62862"
     cy="203.18506"
     rx="10"
     ry="10.00106"
     style="fill:#007b00;fill-opacity:1" />
  <ellipse
     style="fill:#007b00;fill-opacity:1;stroke:#000000;stroke-opacity:1"
     id="path4314"
     cx="221.96336"
     cy="187.13387"
     rx="4.2471352"
     ry="1.4662728" />
  <path
     sodipodi:type="star"
     style="fill:#007b00;fill-opacity:1;stroke:#000000;stroke-opacity:1"
     id="path4316"
     sodipodi:sides="3"
     sodipodi:cx="262.5134"
     sodipodi:cy="185.86984"
     sodipodi:r1="8.6049042"
     sodipodi:r2="6.0845861"
     sodipodi:arg1="1.5237722"
     sodipodi:arg2="2.5709698"
     inkscape:flatsided="true"
     inkscape:rounded="0"
     inkscape:randomized="0"
     d="m 262.91789,194.46523 -8.05057,-12.54279 14.88766,-0.70059 z" />
  <path
     sodipodi:type="star"
     style="fill:#007b00;fill-opacity:1;stroke:#000000;stroke-opacity:1"
     id="path4318"
     sodipodi:sides="4"
     sodipodi:cx="233.39018"
     sodipodi:cy="182.22945"
     sodipodi:r1="5.0134621"
     sodipodi:r2="2.5067308"
     sodipodi:arg1="0.72831738"
     sodipodi:arg2="1.5137155"
     inkscape:flatsided="true"
     inkscape:rounded="0"
     inkscape:randomized="0"
     d="m 237.13171,185.56648 -7.07856,0.40449 -0.40449,-7.07856 7.07856,-0.40449 z"
     inkscape:transform-center-x="0.50959747"
     inkscape:transform-center-y="-0.78586863" />
  <path
     sodipodi:type="star"
     style="fill:#007b00;fill-opacity:1;stroke:#000000;stroke-opacity:1"
     id="path4320"
     sodipodi:sides="5"
     sodipodi:cx="243.50241"
     sodipodi:cy="183.94852"
     sodipodi:r1="3.4589136"
     sodipodi:r2="2.4458213"
     sodipodi:arg1="0.90975316"
     sodipodi:arg2="1.5380717"
     inkscape:flatsided="true"
     inkscape:rounded="0"
     inkscape:randomized="0"
     d="m 245.62598,186.67882 -4.06402,0.13304 -1.38238,-3.824 3.20966,-2.4964 3.36606,2.28113 z" />
  <path
     sodipodi:type="star"
     style="fill:#007b00;fill-opacity:1;stroke:#000000;stroke-opacity:1"
     id="path4322"
     sodipodi:sides="6"
     sodipodi:cx="225.60378"
     sodipodi:cy="192.54391"
     sodipodi:r1="2.3672116"
     sodipodi:r2="1.9151143"
     sodipodi:arg1="2.7928217"
     sodipodi:arg2="3.3164205"
     inkscape:flatsided="true"
     inkscape:rounded="0"
     inkscape:randomized="0"
     d="m 223.37909,193.35289 0.41174,-2.33112 2.22469,-0.80898 1.81294,1.52215 -0.41174,2.33112 -2.22469,0.80898 z"
     inkscape:transform-center-x="-0.025313728"
     inkscape:transform-center-y="0.20183841" />
  <path
     style="fill:none;fill-rule:evenodd;stroke:#000000;stroke-width:1px;stroke-linecap:butt;stroke-linejoin:miter;stroke-opacity:1"
     d="m 293.25456,222.4761 c 0.26966,0.0674 0.5509,0.099 0.80898,0.20224 0.0885,0.0354 0.11697,0.15961 0.20224,0.20225 0.1206,0.0603 0.27658,-0.0426 0.40449,0 0.14301,0.0477 0.25825,0.16568 0.40449,0.20224 0.13081,0.0327 0.26966,0 0.40449,0 0.40449,0 0.80898,0 1.21347,0 0.20224,0 0.40724,-0.0333 0.60673,0 0.21029,0.0351 0.39645,0.1672 0.60673,0.20224 0.1995,0.0333 0.40449,0 0.60674,0 0.40449,0 0.80898,0 1.21347,0 0.17123,0 0.70025,0.0362 0.80897,0 0.0904,-0.0301 0.11697,-0.1596 0.20225,-0.20224 0.0603,-0.0301 0.13483,0 0.20224,0 0.0674,-0.0674 0.11697,-0.15961 0.20225,-0.20224 0.0603,-0.0302 0.13829,0.0213 0.20224,0 0.14301,-0.0477 0.26148,-0.15458 0.40449,-0.20225 0.064,-0.0213 0.14195,0.0302 0.20225,0 0.0853,-0.0426 0.11697,-0.15961 0.20224,-0.20224 0.0603,-0.0301 0.14195,0.0301 0.20224,0 0.0853,-0.0426 0.11698,-0.15961 0.20225,-0.20225 0.0603,-0.0302 0.14195,0.0301 0.20224,0 0.8417,-0.42084 -0.2162,0.014 0.20225,-0.40449 0.10659,-0.10659 0.27906,-0.11862 0.40449,-0.20224 0.0793,-0.0529 0.13483,-0.13483 0.20224,-0.20225 0.0674,-0.0674 0.12292,-0.14936 0.20225,-0.20224 0.12542,-0.0836 0.27906,-0.11863 0.40449,-0.20225 0.1841,-0.12273 0.42747,-0.5171 0.60673,-0.60673 0.0603,-0.0302 0.14195,0.0301 0.20224,0 0.0853,-0.0426 0.13483,-0.13483 0.20225,-0.20224 0.0674,-0.0674 0.13483,-0.13483 0.20224,-0.20225 0.26966,-0.26966 0.53932,-0.53932 0.80898,-0.80898 0.11895,-0.11895 0.76215,-0.71532 0.80898,-0.80897 0.0301,-0.0603 -0.0301,-0.14195 0,-0.20225 0.0426,-0.0853 0.15961,-0.11697 0.20224,-0.20224 0.0301,-0.0603 -0.0301,-0.14195 0,-0.20225 0.0896,-0.17925 0.484,-0.42263 0.60674,-0.60673 0.16723,-0.25085 0.23725,-0.55813 0.40449,-0.80898 0.11634,-0.17452 0.44876,-0.44876 0.60673,-0.60673 0.0674,-0.0674 0.15961,-0.11697 0.20224,-0.20225 0.0636,-0.12711 -0.0636,-0.68186 0,-0.80898 0.0426,-0.0853 0.15961,-0.11697 0.20225,-0.20224 0.0809,-0.1618 -0.0809,-0.44494 0,-0.60673 0.0426,-0.0853 0.15961,-0.11697 0.20224,-0.20225 0.0301,-0.0603 0,-0.13483 0,-0.20224 0,-0.13483 0,-0.26966 0,-0.40449 0,-0.33708 0,-0.67415 0,-1.01122 0,-0.40449 0,-0.80898 0,-1.21347 0,-0.20225 0.0333,-0.40724 0,-0.60674 -0.035,-0.21028 -0.12307,-0.40879 -0.20224,-0.60673 -0.0674,-0.13483 -0.13483,-0.26966 -0.20225,-0.40449 -0.0674,-0.0674 -0.1596,-0.11697 -0.20224,-0.20224 -0.0301,-0.0603 0.0301,-0.14195 0,-0.20225 -0.16191,-0.32382 -0.24258,-0.0807 -0.40449,-0.40449 -0.0302,-0.0603 0.0301,-0.14194 0,-0.20224 -0.0426,-0.0853 -0.13483,-0.13483 -0.20224,-0.20224 -0.0674,-0.0674 -0.13483,-0.13483 -0.20225,-0.20225 -0.33707,-0.33707 -0.67415,-0.67415 -1.01122,-1.01122 -0.32493,-0.32493 -0.76005,-0.89787 -1.21347,-1.01122 -0.1308,-0.0327 -0.27228,0.0264 -0.40449,0 -1.66287,-0.55429 0.42637,0.0711 -1.21346,-0.20225 -0.21029,-0.035 -0.39645,-0.1672 -0.60674,-0.20224 -0.19949,-0.0333 -0.40449,0 -0.60673,0 -0.26966,0 -0.53932,0 -0.80898,0 -0.20224,0 -0.40724,-0.0333 -0.60673,0 -0.21029,0.035 -0.39645,0.16719 -0.60674,0.20224 -0.33249,0.0554 -0.67415,0 -1.01122,0 -0.13483,0 -0.27368,-0.0327 -0.40449,0 -0.14624,0.0366 -0.25824,0.16568 -0.40449,0.20225 -0.1308,0.0327 -0.27368,-0.0327 -0.40449,0 -0.14624,0.0366 -0.26966,0.13482 -0.40449,0.20224 -0.13483,0.0674 -0.27906,0.11863 -0.40449,0.20224 -0.0793,0.0529 -0.11697,0.15961 -0.20224,0.20225 -0.0603,0.0301 -0.14615,-0.0374 -0.20224,0 -0.15866,0.10577 -0.25195,0.29008 -0.40449,0.40449 -0.1206,0.0904 -0.27523,0.12469 -0.40449,0.20224 -0.20843,0.12506 -0.38332,0.30874 -0.60674,0.40449 -1.99528,0.49882 0.0745,-0.16602 -1.21346,0.60674 -0.18281,0.10968 -0.42393,0.0926 -0.60674,0.20224 -0.1635,0.0981 -0.26966,0.26966 -0.40449,0.40449 -0.0674,0.0674 -0.13483,0.13483 -0.20224,0.20224 -0.0674,0.0674 -0.15961,0.11697 -0.20224,0.20225 -0.0301,0.0603 0,0.13483 0,0.20224 0,0.0674 0,0.13483 0,0.20225 0,0.13289 -0.038,0.49262 0,0.60673 0.0477,0.14301 0.15457,0.26148 0.20224,0.40449 0.0213,0.064 -0.0301,0.14195 0,0.20224 0.0426,0.0853 0.13483,0.13483 0.20224,0.20225 0.0674,0.0674 0.11698,0.15961 0.20225,0.20224 0.0603,0.0302 0.14195,-0.0301 0.20224,0 0.17055,0.0853 0.23394,0.31922 0.40449,0.40449 0.0603,0.0301 0.15458,-0.0477 0.20225,0 0.0477,0.0477 -0.0477,0.15458 0,0.20225 0.0477,0.0477 0.13483,0 0.20224,0 0.0674,0 0.13483,0 0.20225,0 0.60673,0 1.21346,0 1.8202,0 1.01122,0 2.02244,0 3.03366,0 0.33708,0 0.67415,0 1.01123,0 0.13483,0 0.26966,0 0.40449,0 0.0674,0 0.14194,0.0302 0.20224,0 0.0853,-0.0426 0.11697,-0.15961 0.20225,-0.20225 0.0603,-0.0301 0.14194,0.0301 0.20224,0 0.0853,-0.0426 0.11697,-0.15961 0.20224,-0.20224 0.12712,-0.0636 0.68187,0.0636 0.80898,0 0.0853,-0.0426 0.1118,-0.1721 0.20225,-0.20225 0.12791,-0.0426 0.26966,0 0.40449,0 0.16935,0 0.85742,0.0385 1.01122,0 0.14624,-0.0366 0.26148,-0.15457 0.40449,-0.20224 0.064,-0.0213 0.13483,0 0.20224,0 0.20225,0 0.40724,0.0333 0.60674,0 0.41149,0.0702 0.65523,-0.33329 1.01122,-0.40449 0.19832,-0.0397 0.40449,0 0.60673,0 0.0674,0 0.14195,0.0302 0.20225,0 0.0853,-0.0426 0.11697,-0.15961 0.20224,-0.20225 0.09,-0.045 0.71648,0.0308 0.80898,0 0.0905,-0.0301 0.11697,-0.1596 0.20224,-0.20224 0.12862,-0.0643 0.84372,0.0558 1.01123,0 0.0904,-0.0302 0.11179,-0.1721 0.20224,-0.20224 0.12791,-0.0426 0.27369,0.0327 0.40449,0 0.14624,-0.0366 0.25825,-0.16569 0.40449,-0.20225 0.1308,-0.0327 0.27658,0.0426 0.40449,0 0.0904,-0.0301 0.1118,-0.17209 0.20224,-0.20224 1.38839,-0.4628 -0.94203,0.77438 1.01123,-0.20225 0.0853,-0.0426 0.12291,-0.14936 0.20224,-0.20224 0.12543,-0.0836 0.27906,-0.11863 0.40449,-0.20225 0.17452,-0.11634 0.44876,-0.44876 0.60673,-0.60673 0.0674,-0.0674 0.13483,-0.13483 0.20225,-0.20224 0.0674,-0.0674 0.1596,-0.11698 0.20224,-0.20225 0.0302,-0.0603 -0.0301,-0.14195 0,-0.20224 0.12135,-0.2427 0.48539,-0.36404 0.60673,-0.60674 0.0809,-0.16179 -0.0809,-0.44494 0,-0.60673 0.30838,-0.61676 0.16034,0.36989 0.40449,-0.60673 0.0327,-0.13081 -0.0327,-0.27369 0,-0.40449 0.0366,-0.14625 0.16569,-0.25825 0.20225,-0.40449 0.049,-0.19621 0,-0.40449 0,-0.60674 0,-0.13483 0,-0.26966 0,-0.40449 0,-0.0674 0.0301,-0.14194 0,-0.20224 -0.0853,-0.17055 -0.31922,-0.23394 -0.40449,-0.40449 -0.0301,-0.0603 0.0301,-0.14195 0,-0.20224 -0.16191,-0.32383 -0.24258,-0.0807 -0.40449,-0.40449 -0.0301,-0.0603 0.0301,-0.14195 0,-0.20225 -0.0853,-0.17054 -0.29872,-0.24583 -0.40449,-0.40449 -0.0836,-0.12542 -0.13483,-0.26966 -0.20224,-0.40449 -0.13483,-0.13482 -0.29009,-0.25194 -0.40449,-0.40448 -0.1809,-0.24119 -0.2236,-0.56779 -0.40449,-0.80898 -0.11441,-0.15254 -0.26966,-0.26966 -0.40449,-0.40449 -0.13483,-0.13483 -0.26966,-0.26966 -0.40449,-0.40449 -0.13483,-0.13483 -0.24583,-0.29872 -0.40449,-0.40449 -0.12543,-0.0836 -0.27906,-0.11863 -0.40449,-0.20224 -0.0793,-0.0529 -0.12292,-0.14936 -0.20224,-0.20225 -0.12543,-0.0836 -0.27906,-0.11863 -0.40449,-0.20224 -0.0793,-0.0529 -0.12292,-0.14936 -0.20225,-0.20225 -0.62186,-0.41457 -0.18711,0.0101 -0.80897,-0.40449 -0.15866,-0.10577 -0.26966,-0.26966 -0.40449,-0.40449 -0.20225,-0.20224 -0.40449,-0.40448 -0.60674,-0.60673 -0.0674,-0.0674 -0.13483,-0.13483 -0.20224,-0.20224 -0.0674,-0.0674 -0.11697,-0.15961 -0.20225,-0.20225 -0.0603,-0.0302 -0.14194,0.0301 -0.20224,0 -0.0853,-0.0426 -0.11697,-0.15961 -0.20224,-0.20224 -0.0603,-0.0301 -0.14195,0.0302 -0.20225,0 -0.17055,-0.0853 -0.23394,-0.31922 -0.40449,-0.40449 -0.0603,-0.0302 -0.14194,0.0301 -0.20224,0 -0.0853,-0.0426 -0.11697,-0.15961 -0.20225,-0.20225 -0.0603,-0.0301 -0.14194,0.0302 -0.20224,0 -0.0853,-0.0426 -0.13483,-0.13483 -0.20225,-0.20224 -0.20558,-0.20559 -0.28022,-0.32286 -0.60673,-0.40449 -0.92559,-0.2314 0.21029,0.40851 -1.01122,-0.20224 -0.61676,-0.30838 0.36989,-0.16034 -0.60674,-0.40449 -0.1962,-0.0491 -0.40448,0 -0.60673,0 -0.33707,0 -0.67873,-0.0554 -1.01122,0 -0.21029,0.035 -0.40449,0.13483 -0.60674,0.20224 -0.20224,0.0674 -0.40448,0.13483 -0.60673,0.20225 -0.20224,0.0674 -0.41605,0.1069 -0.60673,0.20224 -0.0853,0.0426 -0.11697,0.15961 -0.20225,0.20224 -0.19068,0.0953 -0.40879,0.12307 -0.60673,0.20225 -0.27993,0.11197 -0.52296,0.30915 -0.80898,0.40449 -0.0639,0.0213 -0.14195,-0.0302 -0.20224,0 -0.44718,0.22358 -0.0628,0.12552 -0.20225,0.40449 -0.0995,0.19901 -0.70947,0.60996 -0.80898,0.80898 -0.0301,0.0603 0,0.13482 0,0.20224 0,0.0674 0,0.13483 0,0.20224 0,0.1329 -0.038,0.49263 0,0.60674 0.0953,0.28601 0.29252,0.52905 0.40449,0.80898 0.16445,0.41112 0.16734,0.65549 0.40449,1.01122 0.0529,0.0793 0.13483,0.13483 0.20225,0.20224 0.13483,0.13483 0.26966,0.26966 0.40449,0.40449 0.0674,0.0674 0.12291,0.14936 0.20224,0.20225 0.25085,0.16723 0.53932,0.26966 0.80898,0.40449 0.13483,0.0674 0.25824,0.16568 0.40449,0.20224 0.1308,0.0327 0.26966,0 0.40449,0 0.13483,0 0.26966,0 0.40449,0 0.20224,0 0.40448,0 0.60673,0 0.20224,0 0.40724,0.0332 0.60673,0 0.21029,-0.0351 0.40449,-0.13483 0.60674,-0.20224 0.40449,-0.13483 0.80897,-0.26966 1.21346,-0.40449 0.20225,-0.0674 0.39645,-0.1672 0.60674,-0.20225 0.19949,-0.0332 0.40841,0.0397 0.60673,0 0.29967,-0.0599 0.8968,-0.52756 1.21347,-0.60673 0.1308,-0.0327 0.27368,0.0327 0.40449,0 0.14624,-0.0366 0.26452,-0.14626 0.40449,-0.20225 0.39587,-0.15835 0.80897,-0.26966 1.21346,-0.40448 0.60674,-0.20225 1.21347,-0.40449 1.8202,-0.60674 0.20225,-0.0674 0.40449,-0.13483 0.60674,-0.20224 0.20224,-0.0674 0.41605,-0.10691 0.60673,-0.20225 0.43481,-0.2174 0.79661,-0.55886 1.21347,-0.80898 0.25852,-0.15511 0.55812,-0.23725 0.80898,-0.40448 0.46463,-0.30976 -0.0867,-0.11553 0.40448,-0.60674 0.1066,-0.10659 0.2839,-0.1118 0.40449,-0.20224 0.22882,-0.17161 0.36876,-0.44808 0.60674,-0.60674 0.12542,-0.0836 0.27906,-0.11862 0.40449,-0.20224 0.0793,-0.0529 0.12291,-0.14936 0.20224,-0.20225 0.12543,-0.0836 0.27906,-0.11862 0.40449,-0.20224 0.18669,-0.12446 0.2178,-0.28003 0.40449,-0.40449 0.0377,-0.0251 0.79602,-0.39153 0.80898,-0.40449 0.10659,-0.10659 0.0956,-0.29789 0.20224,-0.40449 0.10659,-0.10659 0.27906,-0.11862 0.40449,-0.20224 0.15865,-0.10577 0.24584,-0.29872 0.40449,-0.40449 0.12543,-0.0836 0.27906,-0.11863 0.40449,-0.20225 0.2976,-0.19839 0.51138,-0.61058 0.80898,-0.80897 0.12542,-0.0836 0.27906,-0.11863 0.40449,-0.20225 0.15865,-0.10577 0.26966,-0.26966 0.40449,-0.40449 0.20224,-0.20224 0.40448,-0.40449 0.60673,-0.60673 0.11895,-0.11895 0.76215,-0.71532 0.80898,-0.80898 0.0301,-0.0603 -0.0213,-0.13829 0,-0.20224 0.0477,-0.14301 0.15457,-0.26148 0.20224,-0.40449 0.0213,-0.064 -0.0213,-0.13829 0,-0.20225 0.0477,-0.14301 0.15458,-0.26148 0.20225,-0.40449 0.0213,-0.0639 -0.0213,-0.13828 0,-0.20224 0.0477,-0.14301 0.16568,-0.25825 0.20224,-0.40449 0.0226,-0.0902 0.0107,-1.38374 0,-1.41571 -0.0301,-0.0905 -0.14936,-0.12292 -0.20224,-0.20225 -0.0836,-0.12542 -0.13483,-0.26965 -0.20225,-0.40448 -0.13483,-0.26966 -0.26966,-0.53932 -0.40449,-0.80898 -0.0674,-0.13483 -0.11862,-0.27906 -0.20224,-0.40449 -0.0529,-0.0793 -0.14936,-0.12292 -0.20225,-0.20225 -0.0836,-0.12542 -0.11179,-0.28389 -0.20224,-0.40449 -0.53077,-0.70768 -0.21838,-0.16378 -0.80898,-0.60673 -0.15254,-0.11441 -0.25559,-0.28537 -0.40449,-0.40449 -0.1898,-0.15184 -0.40449,-0.26966 -0.60673,-0.40449 -0.20225,-0.13483 -0.38933,-0.29578 -0.60674,-0.40449 -0.32327,-0.16163 -1.11331,-0.31809 -1.41571,-0.40449 -0.20498,-0.0586 -0.40175,-0.14367 -0.60673,-0.20224 -1.77765,-0.5079 0.039,0.0804 -1.41571,-0.40449 -0.20225,-0.0674 -0.39769,-0.16043 -0.60674,-0.20224 -0.13221,-0.0265 -0.27657,0.0426 -0.40449,0 -0.0904,-0.0301 -0.11697,-0.15961 -0.20224,-0.20225 -0.12059,-0.0603 -0.30915,0.0953 -0.40449,0 -0.0477,-0.0477 0.0477,-0.15457 0,-0.20224 -0.0477,-0.0477 -0.13483,0 -0.20224,0 -0.0674,0 -0.14195,-0.0301 -0.20225,0 -0.0853,0.0426 -0.11697,0.15961 -0.20224,0.20224 -0.0603,0.0301 -0.13684,-0.0164 -0.20225,0 -1.66287,0.55429 0.42637,-0.0711 -1.21346,0.20225 -0.21029,0.035 -0.40449,0.13483 -0.60674,0.20224 -0.20224,0.0674 -0.40879,0.12307 -0.60673,0.20225 -0.40814,0.16325 -0.34952,0.14727 -0.60673,0.40448 -0.0674,0.0674 -0.12292,0.14936 -0.20225,0.20225 -0.12543,0.0836 -0.26966,0.13483 -0.40449,0.20224 -0.13483,0.13483 -0.25194,0.29009 -0.40449,0.40449 -0.12059,0.0905 -0.27906,0.11863 -0.40449,0.20225 -0.0857,0.0572 -0.56489,0.52305 -0.60673,0.60673 -0.0302,0.0603 0.0301,0.14195 0,0.20225 -0.0426,0.0853 -0.14936,0.12291 -0.20224,0.20224 -0.0836,0.12543 -0.13483,0.26966 -0.20225,0.40449 -0.0674,0.13483 -0.14626,0.26453 -0.20224,0.40449 -0.0792,0.19794 -0.16044,0.39769 -0.20225,0.60673 -0.0278,0.13919 -0.0144,1.34354 0,1.41571 0.0296,0.14782 0.14626,0.26453 0.20225,0.40449 0.0792,0.19794 0.1069,0.41606 0.20224,0.60674 0.0426,0.0853 0.14936,0.12291 0.20225,0.20224 0.0836,0.12543 0.11862,0.27906 0.20224,0.40449 0.0529,0.0793 0.14936,0.12292 0.20224,0.20224 0.0836,0.12543 0.0957,0.2979 0.20225,0.40449 0.18984,0.18984 1.18963,0.51631 1.41571,0.60674 0.13996,0.056 0.26453,0.14626 0.40449,0.20224 0.19794,0.0792 0.40449,0.13483 0.60673,0.20225 0.20225,0.0674 0.39645,0.16719 0.60674,0.20224 0.19949,0.0333 0.40724,-0.0333 0.60673,0 0.21028,0.0351 0.39645,0.1672 0.60673,0.20224 0.33249,0.0554 0.67415,0 1.01123,0 0.16557,0 0.88018,0.0437 1.01122,0 0.28602,-0.0953 0.52905,-0.29251 0.80898,-0.40448 0.58917,-0.23567 1.21809,-0.40603 1.8202,-0.60674 0.20224,-0.0674 0.41605,-0.1069 0.60673,-0.20224 0.0853,-0.0426 0.13483,-0.13483 0.20225,-0.20225 0.13483,-0.13483 0.25194,-0.29008 0.40449,-0.40449 0.14584,-0.10938 1.02337,-0.53069 1.21346,-0.60673 0.19794,-0.0792 0.4088,-0.12307 0.60674,-0.20224 0.27992,-0.11197 0.51649,-0.33137 0.80897,-0.40449 0.13081,-0.0327 0.27658,0.0426 0.40449,0 0.0905,-0.0301 0.10976,-0.17912 0.20225,-0.20225 0.1962,-0.049 0.41053,0.049 0.60673,0 0.0925,-0.0231 0.10975,-0.17912 0.20225,-0.20224 0.1962,-0.0491 0.40448,0 0.60673,0 0.20224,-0.0674 0.40449,-0.13483 0.60673,-0.20225 0.60674,-0.20224 1.21347,-0.40449 1.8202,-0.60673 0.20225,-0.0674 0.40449,-0.13483 0.60674,-0.20224 0.20224,-0.0674 0.41605,-0.10691 0.60673,-0.20225 0.0853,-0.0426 0.12292,-0.14936 0.20225,-0.20224 0.12542,-0.0836 0.27906,-0.11863 0.40448,-0.20225 0.0793,-0.0529 0.13483,-0.13483 0.20225,-0.20224 0.20224,-0.20225 0.40449,-0.40449 0.60673,-0.60674 0.15797,-0.15797 0.49039,-0.43221 0.60674,-0.60673 0.16723,-0.25085 0.23725,-0.55812 0.40449,-0.80898 0.0529,-0.0793 0.14936,-0.12292 0.20224,-0.20224 0.44558,-0.10185 0.10691,-0.41606 0.20224,-0.60674 0.0426,-0.0853 0.1721,-0.11179 0.20225,-0.20224 0.0426,-0.12791 -0.0327,-0.27369 0,-0.40449 0.0366,-0.14624 0.16568,-0.25825 0.20224,-0.40449 0.0327,-0.1308 -0.0327,-0.27368 0,-0.40449 0.0366,-0.14624 0.13483,-0.26966 0.20225,-0.40449 0.0674,-0.20224 0.15054,-0.39991 0.20224,-0.60673 0.0163,-0.0654 0,-0.13483 0,-0.20224 0,-0.20225 0,-0.40449 0,-0.60674 0,-0.4719 0,-0.94381 0,-1.41571 0,-0.10576 0.0266,-0.7558 0,-0.80898 -0.0853,-0.17055 -0.29872,-0.24583 -0.40449,-0.40449 -0.0836,-0.12542 -0.13483,-0.26966 -0.20224,-0.40449 -0.13483,-0.26966 -0.29252,-0.52905 -0.40449,-0.80897 -0.0792,-0.19794 -0.12307,-0.4088 -0.20224,-0.60674 -0.11197,-0.27992 -0.26966,-0.53932 -0.40449,-0.80898 -0.0674,-0.13483 -0.1118,-0.28389 -0.20225,-0.40449 -0.22881,-0.30508 -0.58016,-0.50389 -0.80898,-0.80897 -0.0904,-0.1206 -0.11179,-0.2839 -0.20224,-0.40449 -0.62985,-0.83981 -0.14017,-0.026 -1.01122,-0.60674 -1.34186,-0.89456 0.10991,-0.34953 -1.21347,-1.01122 -0.19068,-0.0953 -0.4088,-0.12307 -0.60673,-0.20224 -0.13997,-0.056 -0.26453,-0.14626 -0.40449,-0.20225 -0.19794,-0.0792 -0.4088,-0.12307 -0.60674,-0.20224 -0.13996,-0.056 -0.26966,-0.13483 -0.40449,-0.20225 -0.13483,-0.0674 -0.27906,-0.11862 -0.40449,-0.20224 -0.15865,-0.10577 -0.22359,-0.34419 -0.40448,-0.40449 -0.12791,-0.0426 -0.27658,0.0426 -0.40449,0 -0.0904,-0.0301 -0.12292,-0.14936 -0.20225,-0.20224 -0.12542,-0.0836 -0.26966,-0.13483 -0.40449,-0.20225 -0.13483,-0.0674 -0.26452,-0.14626 -0.40449,-0.20224 -0.41112,-0.16445 -0.65549,-0.16734 -1.01122,-0.40449 -0.0793,-0.0529 -0.11697,-0.15961 -0.20224,-0.20225 -0.0864,-0.0432 -0.93128,0 -1.01123,0 -0.0743,0 -0.80084,-0.008 -0.80897,0 -0.0477,0.0477 0.0301,0.14195 0,0.20225 -0.42085,0.84169 0.014,-0.21621 -0.40449,0.20224 -0.0414,0.0413 0.0401,0.52655 0,0.60674 -0.0426,0.0853 -0.15961,0.11697 -0.20225,0.20224 -0.0301,0.0603 0.0302,0.14195 0,0.20224 -0.0426,0.0853 -0.17209,0.1118 -0.20224,0.20225 -0.0372,0.11149 0,1.04183 0,1.21347 0,0.17163 -0.0372,1.10197 0,1.21346 0.0301,0.0905 0.13483,0.13483 0.20224,0.20225 0.20225,0.20224 0.40449,0.40449 0.60674,0.60673 0.0674,0.0674 0.14936,0.12292 0.20224,0.20225 0.0836,0.12542 0.11863,0.27906 0.20225,0.40448 0.0529,0.0793 0.13483,0.13483 0.20224,0.20225 0.20224,0.20224 0.40449,0.40449 0.60673,0.60673 0.10648,0.10648 0.55273,0.49872 0.60674,0.60674 0.0301,0.0603 -0.0301,0.14194 0,0.20224 0.0426,0.0853 0.1596,0.11697 0.20224,0.20225 0.0301,0.0603 -0.0301,0.14194 0,0.20224 0.0426,0.0853 0.13483,0.13483 0.20225,0.20224 0.0674,0.0674 0.11697,0.15961 0.20224,0.20225 0.0603,0.0302 0.15458,-0.0477 0.20225,0 0.0477,0.0477 -0.0301,0.14195 0,0.20224 0.0426,0.0853 0.1596,0.11697 0.20224,0.20225 0.0301,0.0603 -0.0477,0.15457 0,0.20224 0.0477,0.0477 0.14195,-0.0301 0.20224,0 0.0853,0.0426 0.13483,0.13483 0.20225,0.20225 0.0674,0.0674 0.15961,0.11697 0.20224,0.20224 0.0301,0.0603 -0.0477,0.15458 0,0.20225 0.0477,0.0477 0.15458,-0.0477 0.20225,0 0.0953,0.0953 -0.0603,0.28389 0,0.40449 0.0426,0.0853 0.15961,0.11697 0.20224,0.20224 0.0301,0.0603 -0.0477,0.15457 0,0.20224 0.0477,0.0477 0.15458,-0.0477 0.20225,0 0.0477,0.0477 -0.0301,0.14195 0,0.20225 0.0426,0.0853 0.1596,0.11697 0.20224,0.20224 0.13949,0.27897 -0.24493,0.18091 0.20225,0.40449 0.32382,0.16191 0.0807,-0.16191 0.40448,0 0.0853,0.0426 0.11698,0.15961 0.20225,0.20225 0.0603,0.0302 0.15457,-0.0477 0.20224,0 0.0477,0.0477 -0.0477,0.15457 0,0.20224 0.0953,0.0953 0.30915,-0.0953 0.40449,0 0.0477,0.0477 -0.0477,0.15458 0,0.20225 0.0477,0.0477 0.14195,-0.0301 0.20225,0 0.0853,0.0426 0.11697,0.1596 0.20224,0.20224 0.59517,0.29758 -0.26627,-0.46852 0.40449,0.20225"
     id="path4324"
     inkscape:connector-curvature="0" />
</svg>
